HIERARCHY
ROOT root
{
	OFFSET 0.000000 0.000000 0.000000
	CHANNELS 6 Xposition Yposition Zposition Zrotation Yrotation Xrotation
	JOINT lhip
	{
		OFFSET 0.058581 -0.082280 -0.017664
		CHANNELS 3 Zrotation Yrotation Xrotation
		JOINT lknee
		{
			OFFSET 0.043451 -0.386469 0.008037
			CHANNELS 3 Zrotation Yrotation Xrotation
			JOINT lankle
			{
				OFFSET -0.014790 -0.426874 -0.037428
				CHANNELS 3 Zrotation Yrotation Xrotation
				JOINT ltoe
				{
					OFFSET 0.041054 -0.060286 0.122042
					CHANNELS 3 Zrotation Yrotation Xrotation
					End Site
					{
						OFFSET 0.000000 0.000000 0.000000
					}
				}
			}
		}
	}
	JOINT rhip
	{
		OFFSET -0.060310 -0.090513 -0.013543
		CHANNELS 3 Zrotation Yrotation Xrotation
		JOINT rknee
		{
			OFFSET -0.043257 -0.383688 -0.004843
			CHANNELS 3 Zrotation Yrotation Xrotation
			JOINT rankle
			{
				OFFSET 0.019056 -0.420046 -0.034562
				CHANNELS 3 Zrotation Yrotation Xrotation
				JOINT rtoe
				{
					OFFSET -0.034840 -0.062106 0.130323
					CHANNELS 3 Zrotation Yrotation Xrotation
					End Site
					{
						OFFSET 0.000000 0.000000 0.000000
					}
				}
			}
		}
	}
	JOINT lowerback
	{
		OFFSET 0.004439 0.124404 -0.038385
		CHANNELS 3 Zrotation Yrotation Xrotation
		JOINT upperback
		{
			OFFSET 0.004488 0.137956 0.026820
			CHANNELS 3 Zrotation Yrotation Xrotation
			JOINT chest
			{
				OFFSET -0.002265 0.056032 0.002855
				CHANNELS 3 Zrotation Yrotation Xrotation
				JOINT lowerneck
				{
					OFFSET -0.013390 0.211636 -0.033468
					CHANNELS 3 Zrotation Yrotation Xrotation
					JOINT upperneck
					{
						OFFSET 0.010113 0.088937 0.050410
						CHANNELS 3 Zrotation Yrotation Xrotation
						End Site
						{
							OFFSET 0.000000 0.000000 0.000000
						}
					}
				}
				JOINT lclavicle
				{
					OFFSET 0.071702 0.114000 -0.018898
					CHANNELS 3 Zrotation Yrotation Xrotation
					JOINT lshoulder
					{
						OFFSET 0.122921 0.045205 -0.019046
						CHANNELS 3 Zrotation Yrotation Xrotation
						JOINT lelbow
						{
							OFFSET 0.255332 -0.015649 -0.022946
							CHANNELS 3 Zrotation Yrotation Xrotation
							JOINT lwrist
							{
								OFFSET 0.265709 0.012698 -0.007375
								CHANNELS 3 Zrotation Yrotation Xrotation
								End Site
								{
									OFFSET 0.000000 0.000000 0.000000
								}
							}
						}
					}
				}
				JOINT rclavicle
				{
					OFFSET -0.082954 0.112472 -0.023707
					CHANNELS 3 Zrotation Yrotation Xrotation
					JOINT rshoulder
					{
						OFFSET -0.113228 0.046853 -0.008472
						CHANNELS 3 Zrotation Yrotation Xrotation
						JOINT relbow
						{
							OFFSET -0.260127 -0.014369 -0.031269
							CHANNELS 3 Zrotation Yrotation Xrotation
							JOINT rwrist
							{
								OFFSET -0.269108 0.006794 -0.006027
								CHANNELS 3 Zrotation Yrotation Xrotation
								End Site
								{
									OFFSET 0.000000 0.000000 0.000000
								}
							}
						}
					}
				}
			}
		}
	}
}
MOTION
Frames: 6
Frame Time: 0.033333
1.976749 0.608226 0.982638 -94.541056 2.600195 85.603235 3.297345 -0.674696 6.326749 -3.928387 -7.785339 3.507799 6.030671 8.196577 -20.040518 0.000000 -0.000000 0.000000 0.726634 -1.636358 3.429701 3.139159 -0.724538 9.628754 3.097582 -1.898404 -13.924927 0.000000 -0.000000 0.000000 -1.382116 2.989998 4.373805 3.302900 -1.460534 5.804630 0.448978 0.393873 2.325047 5.314362 0.921041 11.833343 0.633855 -6.426416 17.255332 -23.334446 5.178996 4.599396 -66.550138 -7.308591 10.970706 14.515480 -27.114506 12.466835 -3.037909 -11.593437 -1.434328 24.696150 -4.448847 4.571111 65.227903 2.655253 6.889253 -21.724820 17.926829 -3.045716 4.747381 4.207182 -4.579478 
1.976000 0.608626 0.982457 -94.706262 2.598928 85.523316 3.307646 -0.763460 6.556161 -3.938489 -7.658106 3.373350 5.905051 8.303223 -20.152622 0.000000 -0.000000 0.000000 0.746406 -1.533873 3.615274 3.172382 -0.713955 9.482602 3.268365 -2.079218 -14.162724 0.000000 -0.000000 0.000000 -1.341402 2.901804 4.309747 3.257791 -1.350020 5.789874 0.470348 0.428585 2.488535 5.411836 1.067798 11.862948 0.554900 -6.272636 17.413637 -23.201554 5.332956 4.571006 -66.734258 -7.164923 11.314081 14.408510 -27.057609 12.689426 -1.743320 -11.863857 -2.093799 24.797429 -4.263924 4.766487 65.221775 2.803089 6.976374 -21.736926 17.737475 -3.912582 2.835659 4.920986 -4.983543 
1.975418 0.608918 0.982179 -94.753407 2.625427 85.492226 3.347672 -0.736960 6.665283 -3.945003 -7.579546 3.330526 5.897719 8.312186 -20.187427 0.000000 -0.000000 0.000000 0.824704 -1.525607 3.693187 3.129107 -0.734890 9.357731 3.233167 -2.082245 -14.659822 0.000000 -0.000000 0.000000 -1.327493 2.953516 4.306828 3.321211 -1.322197 5.742073 0.535799 0.361330 2.595594 5.466651 1.197185 11.856526 0.426434 -6.163853 17.398528 -23.183885 5.417796 4.625640 -66.926277 -7.090274 11.524159 14.321985 -27.047697 12.941985 -0.486686 -12.226339 -2.529145 24.911463 -4.267979 4.778199 65.056969 3.026319 6.925288 -21.711888 17.630968 -4.351686 0.550036 5.760701 -4.541310 
1.974137 0.609192 0.981844 -94.881703 2.695342 85.425111 3.428645 -0.585165 6.882685 -3.950329 -7.471480 3.244204 5.924472 8.387757 -19.923095 0.000000 -0.000000 0.000000 0.906830 -1.657405 3.786512 3.129811 -0.589918 9.348935 3.047966 -1.944246 -14.817846 0.000000 -0.000000 0.000000 -1.169331 2.967238 4.187696 3.360034 -1.337509 5.777794 0.502795 0.506227 2.648888 5.496008 1.039099 11.962692 0.440069 -6.299100 17.277690 -23.072327 5.448918 4.575903 -67.148841 -6.869214 11.654351 14.113618 -26.919612 13.518110 -1.316174 -11.528514 -3.467252 24.763657 -4.340095 4.859073 65.210096 2.991858 6.996818 -21.753588 17.964953 -3.964165 0.999948 5.480981 -4.676343 
1.974029 0.609381 0.981828 -94.824931 2.669326 85.442459 3.399899 -0.632741 6.848399 -3.935467 -7.478966 3.285644 5.957595 8.418923 -19.950296 0.000000 -0.000000 0.000000 0.888565 -1.636562 3.793574 3.151921 -0.602076 9.337167 3.030425 -1.985198 -14.823234 0.000000 -0.000000 0.000000 -1.186833 2.953413 4.153433 3.360103 -1.366824 5.767266 0.505697 0.501542 2.647449 5.484055 0.974219 12.016229 0.486845 -6.351305 17.205451 -23.041765 5.435069 4.580574 -67.192332 -6.889488 11.660849 14.059554 -26.812519 13.658518 -1.727220 -11.358310 -3.650803 24.768738 -4.345738 4.854409 65.237054 2.992828 6.982442 -21.892953 17.947439 -3.862919 1.254051 5.380612 -4.429172 
1.973359 0.609912 0.981727 -94.810975 2.628545 85.316485 3.394088 -0.670666 7.057811 -3.958596 -7.497463 3.243945 5.943843 8.484837 -19.947073 0.000000 -0.000000 0.000000 0.874244 -1.554413 4.052017 3.176103 -0.563524 9.215939 3.031928 -2.086826 -14.796015 0.000000 -0.000000 0.000000 -1.214376 2.983634 4.255528 3.349254 -1.411823 5.748336 0.515222 0.512244 2.617120 5.610514 1.170703 11.842222 0.609501 -6.283397 17.276880 -23.023345 5.350213 4.563097 -67.218113 -6.905051 11.635015 13.906577 -26.558529 13.935107 -1.893491 -11.354404 -3.609236 24.777228 -4.284084 4.812315 65.363607 2.814070 7.011614 -22.235121 18.037150 -3.849187 0.803981 5.038883 -3.850156 
